# Blender v3.0.1 OBJ File: 'Low Poly Dead Tree.blend'
# www.blender.org
mtllib Low Poly Tree.mtl
o Cylinder.001
v -0.085219 -0.534569 1.006138
v -0.373942 41.018528 -0.130159
v -0.975215 -0.593788 0.367085
v -0.412421 41.021423 -0.157963
v -0.864504 -0.712225 -0.718135
v -0.407654 41.020996 -0.205283
v 0.136203 -0.771444 -1.164302
v -0.364409 41.017673 -0.224799
v 1.026199 -0.712225 -0.525250
v -0.325930 41.014778 -0.196995
v 0.915487 -0.593788 0.559970
v -0.330696 41.015205 -0.149675
v -0.418437 20.371166 0.223681
v -0.722611 11.951605 0.394390
v -0.353960 20.371590 -0.415143
v -0.639555 11.960352 -0.425514
v 0.231514 20.373310 -0.678716
v 0.112023 11.972335 -0.763458
v 0.752512 20.374605 -0.303465
v 0.780545 11.975573 -0.281496
v 0.688036 20.374180 0.335359
v 0.697489 11.966825 0.538409
v -0.054089 11.954844 0.876352
v 0.102561 20.372459 0.598932
v -0.545462 31.916187 0.357279
v 0.423701 38.066956 -0.520924
v 0.301665 38.072323 -0.609126
v -0.834520 31.930573 0.148459
v 0.316972 38.071976 -0.759015
v -0.799222 31.915977 -0.206376
v 0.454315 38.066261 -0.820702
v -0.474866 31.886997 -0.352391
v 0.576351 38.060894 -0.732501
v -0.185809 31.872612 -0.143571
v 0.561044 38.061241 -0.582612
v -0.221107 31.887207 0.211263
v 0.086934 12.436703 0.462837
v -12.851833 20.919899 0.871353
v -0.368867 12.549505 -0.115282
v -12.860302 20.888660 0.815824
v 0.326696 12.309587 -0.230745
v -12.861675 20.952904 0.817088
v -0.227466 14.302586 0.321894
v -4.005360 18.341988 0.550933
v -4.017648 18.100086 0.180810
v -0.647381 14.165188 -0.180681
v -3.850514 18.509533 0.171973
v -0.026389 14.377125 -0.311984
v -0.312890 17.442446 -0.112043
v 5.884548 21.082918 -7.829886
v 0.424182 17.442446 -0.218931
v 5.935411 21.045570 -7.817675
v 0.148214 17.442446 0.472836
v 5.932467 21.104895 -7.793117
v 0.538404 19.746410 -1.267103
v 1.888566 20.539604 -3.411147
v 3.647688 21.571711 -5.180145
v 3.812090 21.628471 -4.968863
v 2.232934 20.685772 -3.197724
v 0.901097 19.812025 -0.809295
v 3.846143 21.396694 -5.110320
v 2.196308 20.265707 -3.285529
v 1.079912 19.518715 -1.286196
v -0.418568 24.398396 0.355787
v 6.108532 32.020767 2.838358
v -0.171174 24.398396 -0.346706
v 6.138450 32.002258 2.784567
v 0.313506 24.398396 0.218790
v 6.167495 31.995373 2.841489
v 2.326741 28.452089 0.915301
v 4.916946 29.984066 2.575676
v 5.003948 29.951683 2.381199
v 2.427024 28.348192 0.497200
v 5.095869 29.865570 2.556054
v 2.603365 28.117420 0.830828
v 0.001997 20.449984 0.344355
v -5.953932 24.453753 7.467690
v -0.078261 20.451696 -0.396088
v -5.975824 24.507950 7.440962
v 0.602239 20.417343 -0.095355
v -5.913363 24.493252 7.437276
v -5.211210 23.916296 6.595148
v -2.962325 23.794436 3.563443
v -0.553937 22.247780 1.197093
v -5.255468 24.017199 6.508964
v -3.055967 24.072624 3.343610
v -0.701293 22.660696 0.796972
v -5.148133 24.041153 6.595413
v -2.821997 24.128420 3.620431
v -0.199913 22.716133 1.109790
v -0.538046 27.494003 0.244932
v -4.214680 30.575390 -5.362790
v -0.672004 27.508358 -0.113942
v -4.222240 30.554268 -5.402620
v -0.187341 27.503447 0.099787
v -4.199851 30.594116 -5.401768
v -2.742548 30.244900 -3.244443
v -1.532208 29.657297 -0.916693
v -2.626462 30.085791 -3.308298
v -1.440022 29.391823 -1.154877
v -2.576588 30.279026 -3.363447
v -1.212047 29.675547 -1.097997
v 0.145358 12.842644 0.548732
v 0.408975 19.557922 6.608040
v -0.440892 13.094263 0.164417
v 0.353557 19.589846 6.614426
v 0.243178 13.141884 -0.126240
v 0.409333 19.621771 6.615415
v 0.634458 19.322445 5.655492
v 0.040401 16.366032 2.632248
v 0.525804 19.387152 5.595700
v -0.302919 16.611128 2.499134
v 0.654042 19.442158 5.585828
v 0.103898 16.701183 2.350645
v 0.427817 20.931950 -0.107322
v -2.439966 26.795794 -7.835042
v -0.228897 20.897926 0.242349
v -2.499003 26.807631 -7.812555
v -0.183342 20.729349 -0.481673
v -2.476685 26.747377 -7.814095
v -1.400553 25.812731 -3.474377
v -1.703944 25.787649 -3.269902
v -1.651287 25.555754 -3.549075
v -0.047441 22.770596 -0.317521
v 4.937367 24.256563 4.460272
v 0.113535 22.523315 0.096533
v 4.953591 24.237429 4.496271
v -0.347588 22.737421 0.091518
v 4.932362 24.275698 4.499439
v 1.613488 23.703840 1.164685
v 3.276293 23.333315 2.959204
v 3.224539 23.176867 3.070283
v 1.549837 23.410799 1.352021
v 3.151252 23.356848 3.111860
v 1.530477 23.727745 1.507550
v -0.485481 32.996956 -0.275144
v 1.808478 35.924332 -1.547857
v -0.162400 33.002140 -0.187251
v 1.830487 35.909893 -1.535933
v -0.400160 33.007782 0.048486
v 1.829991 35.938774 -1.535060
v 0.171319 34.116188 -0.587205
v 0.270051 34.188095 -0.388932
v 0.354920 34.002144 -0.500515
v -0.294294 30.232637 -0.008007
v -0.986615 32.844498 3.543308
v -0.578066 30.224014 0.169565
v -1.009717 32.830055 3.552946
v -0.590130 30.244118 -0.164476
v -1.010085 32.858936 3.552011
v -0.807403 32.235718 1.688130
v -0.948200 32.267441 1.619008
v -0.937056 32.150818 1.728016
v 0.227711 36.477966 -0.381224
v -1.607586 38.454857 -1.389559
v 0.133445 36.437164 -0.554841
v -1.615079 38.446724 -1.403003
v 0.330864 36.478638 -0.554583
v -1.609174 38.462990 -1.404868
vt 0.856899 2.255497
vt 0.868835 2.254972
vt 0.790815 2.543676
vt 0.787051 2.543960
vt 0.882270 2.254413
vt 0.795045 2.543351
vt 0.871830 2.254904
vt 0.858396 2.255463
vt 0.787517 2.543918
vt 0.791747 2.543593
vt 0.787051 0.497485
vt 0.790815 0.494765
vt 0.795045 0.496674
vt 0.795511 0.501303
vt 0.791747 0.504022
vt 0.787517 0.502114
vt 0.556276 2.255463
vt 0.541615 2.255497
vt 0.497485 2.543960
vt 0.502114 2.543918
vt 0.883767 2.254379
vt 0.795511 2.543309
vt 0.539021 2.254413
vt 0.553683 2.254379
vt 0.501303 2.543309
vt 0.496674 2.543351
vt 0.450548 -0.069511
vt 0.499707 -0.082951
vt 0.493310 -0.240987
vt 0.436762 -0.252021
vt 0.492993 0.237610
vt 0.435784 0.237610
vt 0.561194 0.469388
vt 0.605974 0.462970
vt 0.503449 0.237610
vt 0.607842 0.440698
vt 0.880055 0.605974
vt 0.915532 0.561194
vt 1.045804 0.794815
vt 1.012120 0.815691
vt 0.981894 0.624390
vt 0.968057 0.647061
vt 0.794815 0.554852
vt 0.803404 0.513764
vt 1.200267 0.968057
vt 1.184186 0.988724
vt 1.402982 1.247905
vt 1.407957 1.246711
vt 1.203598 0.981894
vt 1.407669 1.244308
vt 0.868882 0.237610
vt 0.796787 0.237610
vt 0.880055 0.462970
vt 0.933022 0.440698
vt 0.933022 0.607842
vt 1.042221 0.803404
vt 1.184186 0.641509
vt 1.203598 0.624390
vt 1.042221 0.513764
vt 1.012120 0.540555
vt 1.402982 0.593699
vt 1.407669 0.595848
vt 1.407957 0.590045
vt 1.246711 0.590045
vt 1.244308 0.595848
vt 1.006589 1.522193
vt 1.010401 1.524025
vt 1.010485 1.520128
vt 0.837424 0.524206
vt 0.786463 0.524080
vt 0.756710 -0.299470
vt 0.822101 -0.299153
vt 0.894691 0.524374
vt 0.895616 -0.297981
vt 0.850037 0.524289
vt 0.900998 0.524416
vt 0.903740 -0.297125
vt 0.838349 -0.297442
vt 0.460155 0.524080
vt 0.522641 0.524121
vt 0.523655 -0.298614
vt 0.443457 -0.299470
vt 0.867395 -0.164324
vt 0.861974 -0.164948
vt 0.878822 -0.065303
vt 0.889450 -0.071151
vt 0.889450 0.421500
vt 0.878822 0.427829
vt 0.797762 0.156296
vt 0.831343 0.132322
vt 0.891366 -0.064337
vt 0.837554 0.252108
vt 0.797762 0.237584
vt 0.252108 0.165105
vt 0.224564 0.132322
vt 0.428360 -0.212314
vt 0.494382 -0.183044
vt 0.861974 0.447656
vt 0.867430 0.450778
vt 0.867395 0.444533
vt 0.511717 0.524416
vt 0.449231 0.524374
vt 0.429370 -0.297981
vt 0.509568 -0.297125
vt 0.792769 0.524121
vt 0.764834 -0.298614
vt 0.867430 -0.165045
vt -0.165045 0.450778
vt -0.164324 0.444533
vt -0.071151 0.421500
vt -0.064337 0.433210
vt 0.784266 -0.187702
vt 0.841610 -0.212314
vt 0.837554 0.165105
vt 0.851178 -0.183044
vt 0.323833 -0.163088
vt 0.313334 -0.154633
vt 0.242874 -0.245795
vt 0.248983 -0.245434
vt 0.317663 0.870842
vt 0.323833 0.883055
vt 0.248983 0.927276
vt 0.245015 0.923413
vt 0.886299 0.528596
vt 0.819737 0.531956
vt 0.758796 0.748027
vt 0.807837 0.753450
vt 0.467513 1.654749
vt 0.502221 1.653321
vt 0.780943 1.650487
vt 0.809217 1.649080
vt 0.805764 1.650507
vt 0.774038 1.653342
vt 0.520777 0.531956
vt 0.448351 0.531789
vt 0.364942 0.707638
vt 0.404079 0.748027
vt 0.749217 1.653321
vt 0.496077 1.649080
vt 0.461369 1.650507
vt 0.745764 1.654749
vt -0.154633 0.880712
vt -0.163062 0.870842
vt -0.248409 0.923413
vt -0.245795 0.928714
vt 0.585138 1.147761
vt 0.588729 1.152497
vt 0.582955 1.153654
vt 0.690398 0.821876
vt 0.660722 0.801875
vt 0.582955 1.246210
vt 0.588729 1.248409
vt 0.829183 1.031204
vt 0.801875 1.053886
vt 0.458329 0.575604
vt 0.529148 0.559115
vt 0.690398 1.056340
vt 0.665873 1.031204
vt 0.809458 0.559115
vt 0.869238 0.578932
vt 0.807837 0.373481
vt 0.758796 0.404079
vt 0.528476 0.154983
vt 0.551361 0.127906
vt 0.133480 0.858922
vt 0.154983 0.886133
vt -0.163088 0.883055
vt 0.127906 0.891591
vt 0.827587 0.531789
vt 0.773209 0.707638
vt 0.821876 1.056340
vt 1.248409 1.152497
vt 1.246360 1.147761
vt 1.246210 1.153654
vt 0.660722 1.053886
vt 0.805002 0.575604
vt 0.551361 0.891591
vt 0.537635 0.858922
vt 0.242874 0.928714
vt 0.793393 0.755532
vt 0.838497 0.734589
vt 0.978987 0.821397
vt 0.977093 0.852399
vt 0.822751 0.513092
vt 0.793393 0.473082
vt 0.977093 0.334575
vt 0.985213 0.368112
vt 0.811507 1.759563
vt 0.788251 1.760115
vt 0.853806 1.875565
vt 0.862108 1.857377
vt 0.477291 1.760115
vt 0.508947 1.759056
vt 0.539471 1.868533
vt 0.520077 1.875565
vt 0.844149 1.868533
vt 0.779905 1.759056
vt 1.006390 2.046806
vt 1.006439 2.043981
vt 0.633436 2.045394
vt 0.632184 2.046806
vt 1.004286 2.045394
vt 0.617952 2.292914
vt 0.619267 2.292118
vt 0.619449 2.293710
vt 0.840444 2.095556
vt 0.859755 2.099612
vt 0.669992 2.293710
vt 0.669415 2.292118
vt 0.859755 0.536280
vt 0.849665 0.519323
vt 0.670148 0.617952
vt 0.669992 0.619449
vt 0.519323 2.099547
vt 0.536305 2.095556
vt 0.730887 1.744143
vt 0.728627 1.742731
vt 0.728591 1.745556
vt 0.313010 1.676292
vt 0.323673 1.687700
vt 0.134598 1.745556
vt 0.134507 1.742731
vt 0.734645 0.323673
vt 0.748416 0.316911
vt 0.730887 0.135449
vt 0.728591 0.134598
vt 0.735735 0.313010
vt 0.728627 0.134507
vt 0.465448 1.487824
vt 0.498122 1.489790
vt 0.769669 1.489790
vt 0.798606 1.488667
vt 0.748416 1.684596
vt 0.734645 1.687700
vt 0.770849 1.487824
vt 0.735735 1.676292
vt 0.552278 -1.538167
vt 0.446128 -1.526582
vt 0.840714 -1.543960
vt 0.742831 -1.538167
vt 0.927768 -1.538167
vt 0.427261 -1.526582
vt 0.533411 -1.538167
vt 0.819056 -1.520790
vt 0.916939 -1.526582
vt 0.732002 -1.526582
vt 0.416588 1.010401
vt 0.415138 1.006589
vt 0.559133 0.799385
vt 0.575366 0.811026
vt 0.805631 1.474304
vt 0.799385 1.489867
vt 0.811026 1.493205
vt 0.589433 1.434176
vt 0.594997 1.406424
vt 0.677521 0.571699
vt 0.708837 0.589433
vt 0.571699 1.432391
vt 0.493179 1.222195
vt 0.458076 1.220791
vt 0.686538 1.406424
vt 0.708837 1.434176
vt 0.809067 1.221715
vt 0.761660 1.222195
vt 0.677521 1.432391
vt 0.774763 1.220791
vt 0.232017 1.452763
vt 0.249120 1.461186
vt 0.209665 1.661761
vt 0.204097 1.661087
vt 1.308337 1.464354
vt 1.325838 1.452763
vt 1.430658 1.661087
vt 1.424891 1.663571
vt 1.427817 0.209665
vt 1.424891 0.204403
vt 1.430658 0.204097
vt 0.230097 1.464354
vt 0.204403 1.663571
vt 1.308337 0.230097
vt 1.316847 0.249120
vt 1.064788 0.433401
vt 1.054979 0.392505
vt 0.400768 1.281770
vt 0.433401 1.304343
vt 1.054979 1.314505
vt 1.082036 1.281770
vt 0.460633 0.917998
vt 0.515947 0.917998
vt 0.447233 0.917998
vt 0.392505 1.314505
vt 0.786450 0.917998
vt 0.858057 0.917998
vt 0.472592 0.734589
vt 0.513092 0.758777
vt 0.368112 0.850061
vt 0.349788 0.821397
vt 0.041927 0.905997
vt 0.042237 0.902253
vt 0.045758 0.904125
vt 0.334575 0.852399
vt 0.181718 0.798516
vt 0.177651 0.816120
vt 0.985213 0.850061
vt 1.147858 0.813818
vt 1.142796 0.798516
vt 1.135628 0.177651
vt 1.147858 0.192583
vt 0.192583 0.813818
vt 1.311921 0.902253
vt 1.309844 0.905997
vt 1.135628 0.816120
vt 1.309844 0.041927
vt 1.310334 0.045758
vt 0.764069 -0.082951
vt 0.824810 -0.062220
vt 0.859347 -0.264454
vt 0.791311 -0.240987
vt 0.512550 -0.062220
vt 0.504604 -0.264454
vt 0.402111 0.580982
vt 0.396804 0.577753
vt 0.402235 0.574698
vt -0.430658 0.580982
vt -0.430523 0.574698
vt 0.434410 0.301937
vt 0.450758 0.341986
vt -0.430523 0.402235
vt -0.429695 0.396804
vt 0.435612 0.428145
vt 0.434410 0.464348
vt -0.430658 0.402111
vt 0.450758 0.465213
vt 0.465213 0.341986
vt 0.428145 0.325598
vt 0.464348 0.301937
vn -0.5746 -0.2580 0.7767
vn 0.4097 -0.0100 0.9122
vn -0.4061 0.0713 -0.9110
vn 0.0760 0.9971 -0.0013
vn -0.9706 -0.2201 -0.0979
vn 0.5671 0.3114 -0.7625
vn 0.9567 0.2747 0.0963
vn -0.7724 -0.0943 0.6281
vn -0.6920 0.5060 0.5149
vn 0.9202 -0.0903 0.3808
vn -0.3812 0.9177 0.1120
vn 0.7844 -0.2085 0.5841
vn -0.4337 0.8965 0.0911
vn -0.5498 -0.7703 -0.3232
vn -0.0776 0.9675 -0.2407
vn -0.1604 -0.4021 -0.9014
vn 0.8860 -0.1661 0.4330
vn -0.3872 -0.7649 -0.5148
vn -0.3128 -0.6530 -0.6897
vn 0.4588 0.3592 -0.8127
vn 0.7502 -0.2531 0.6109
vn -0.8670 0.4892 -0.0948
vn -0.5843 0.0376 0.8106
vn 0.4100 0.0225 0.9118
vn 0.5846 -0.0002 -0.8113
vn -0.9944 0.0339 -0.1004
vn -0.5255 -0.8468 0.0822
vn -0.6076 -0.5043 0.6136
vn -0.3674 0.7394 -0.5642
vn 0.9898 -0.0514 0.1328
vn -0.0482 0.1149 -0.9922
vn 0.9949 0.0036 0.1006
vn -0.4104 0.0150 -0.9118
vn -0.4235 0.8711 -0.2488
vn 0.9715 -0.0255 0.2358
vn 0.9824 -0.1868 -0.0095
vn -0.6026 -0.4222 0.6772
vn -0.3745 0.5213 -0.7668
vn 0.1332 0.9170 -0.3759
vn 0.6396 -0.2714 0.7192
vn 0.3846 0.5254 -0.7590
vn -0.9944 -0.0365 -0.0993
vn 0.5845 0.0589 -0.8093
vn 0.4112 0.0422 0.9106
vn -0.9459 -0.3160 0.0739
vn -0.4105 0.0007 -0.9119
vn 0.9920 0.0795 0.0985
vn -0.5849 -0.0158 0.8109
vn -0.7721 -0.5549 -0.3098
vn 0.3736 0.1149 0.9204
vn -0.0901 -0.9755 -0.2009
vn 0.9601 0.2790 -0.0174
vn -0.5650 0.3139 0.7631
vn 0.1523 0.9191 -0.3634
vn -0.7315 -0.5786 -0.3607
vn 0.7303 -0.3934 0.5585
vn 0.5475 -0.2236 0.8064
vn -0.7186 0.6215 0.3120
vn 0.9402 0.3283 -0.0905
vn -0.3653 -0.6153 -0.6985
vn 0.5585 -0.3151 0.7673
vn -0.1656 -0.4892 -0.8563
vn -0.1428 0.9863 -0.0823
vn -0.6488 -0.6067 -0.4592
vn -0.3342 -0.5243 0.7832
vn -0.3585 0.9177 -0.1714
vn -0.6896 0.1303 -0.7124
vn 0.8180 -0.5382 -0.2031
vn -0.2246 0.3882 0.8938
vn -0.6694 0.1180 -0.7335
vn 0.7043 -0.7006 -0.1146
vn -0.0802 0.5230 0.8486
vn -0.4937 -0.0348 0.8690
vn 0.8911 -0.3558 -0.2815
vn -0.0843 0.3230 0.9426
vn -0.5898 -0.7270 -0.3515
vn 0.7426 0.4274 -0.5157
vn -0.5670 0.2033 0.7982
vn -0.9803 0.1685 -0.1033
vn -0.4107 -0.0074 -0.9117
vn 0.5746 -0.1474 -0.8051
vn 0.9884 -0.1120 0.1024
vn 0.4134 0.0645 0.9082
vn -0.3662 -0.0348 -0.9299
vn 0.9964 0.0843 0.0072
vn -0.3494 -0.8994 0.2627
vn -0.5867 0.7510 -0.3030
vn 0.9843 0.1763 0.0028
vn -0.3994 -0.6474 0.6491
vn -0.4902 0.4889 -0.7216
vn -0.9945 0.0201 -0.1023
vn -0.4077 0.0281 -0.9127
vn 0.5830 0.0268 -0.8120
vn 0.9948 0.0174 0.1002
vn 0.4086 0.0086 0.9127
vn -0.5842 0.0099 0.8116
vn -0.0922 0.9713 0.2195
vn -0.6813 -0.6273 0.3772
vn 0.7014 -0.3607 -0.6147
vn 0.7264 -0.4212 -0.5430
vn 0.0379 0.9722 0.2309
vn -0.7829 -0.5667 0.2567
vn -0.9337 -0.3019 0.1923
vn 0.4347 -0.2803 -0.8559
vn 0.3414 0.5670 0.7497
vn 0.7796 -0.3230 -0.5365
vn -0.0077 -0.1263 0.9920
vn 0.3980 0.9127 -0.0927
vn -0.7421 0.4958 -0.4511
vn -0.3352 0.8927 -0.3011
vn 0.6912 -0.3906 -0.6081
vn -0.2658 -0.4616 0.8463
vn 0.7143 -0.3391 -0.6122
vn -0.7711 0.5660 -0.2917
vn 0.1344 -0.2323 0.9633
vn 0.7252 -0.4497 -0.5214
vn 0.8626 0.4892 -0.1287
vn -0.6916 -0.3740 0.6179
vn 0.5535 -0.5546 -0.6213
vn 0.2209 0.9753 -0.0006
vn 0.7100 -0.5310 -0.4624
vn -0.4500 -0.3622 0.8163
vn -0.2037 0.9173 -0.3422
vn -0.1852 -0.0708 -0.9801
vn 0.9363 0.1761 0.3040
vn 0.9861 0.0243 -0.1641
vn 0.0691 -0.0082 0.9976
vn 0.2188 0.8163 -0.5345
vn -0.2618 -0.8395 -0.4762
vn -0.1511 -0.0312 -0.9880
vn 0.6913 0.6092 0.3885
vn -0.6013 -0.5798 0.5498
usemtl Material
s off
f 27/1/1 26/2/1 2/3/1 4/4/1
f 26/2/2 35/5/2 12/6/2 2/3/2
f 31/7/3 29/8/3 6/9/3 8/10/3
f 4/11/4 2/12/4 12/13/4 10/14/4 8/15/4 6/16/4
f 29/17/5 27/18/5 4/19/5 6/20/5
f 33/21/6 31/7/6 8/10/6 10/22/6
f 35/23/7 33/24/7 10/25/7 12/26/7
f 43/27/8 46/28/8 39/29/8 37/30/8
f 49/31/9 53/32/9 60/33/9 55/34/9
f 53/32/10 51/35/10 63/36/10 60/33/10
f 55/37/11 60/38/11 59/39/11 56/40/11
f 61/41/12 58/42/12 59/43/12 62/44/12
f 58/45/13 57/46/13 56/40/13 59/39/13
f 50/47/14 52/48/14 61/49/14 57/46/14
f 54/50/15 50/47/15 57/46/15 58/45/15
f 51/51/16 49/52/16 55/53/16 63/54/16
f 60/33/17 63/36/17 62/44/17 59/43/17
f 63/55/18 55/37/18 56/40/18 62/56/18
f 57/57/19 61/58/19 62/59/19 56/60/19
f 50/61/20 54/62/20 52/63/20
f 52/64/21 54/65/21 58/42/21 61/41/21
f 92/66/22 96/67/22 94/68/22
f 24/69/23 13/70/23 14/71/23 23/72/23
f 21/73/24 24/69/24 23/72/24 22/74/24
f 17/75/25 19/76/25 20/77/25 18/78/25
f 13/79/26 15/80/26 16/81/26 14/82/26
f 104/83/27 106/84/27 111/85/27 109/86/27
f 109/87/28 111/88/28 112/89/28 110/90/28
f 111/85/29 113/91/29 114/92/29 112/93/29
f 114/94/30 110/95/30 103/96/30 107/97/30
f 106/98/31 108/99/31 104/100/31
f 19/101/32 21/102/32 22/103/32 20/104/32
f 15/105/33 17/75/33 18/78/33 16/106/33
f 106/84/34 108/107/34 113/91/34 111/85/34
f 108/108/35 104/109/35 109/110/35 113/111/35
f 113/111/36 109/110/36 110/95/36 114/94/36
f 110/90/37 112/89/37 105/112/37 103/113/37
f 112/89/38 114/114/38 107/115/38 105/112/38
f 88/116/39 85/117/39 79/118/39 81/119/39
f 82/120/40 88/121/40 81/122/40 77/123/40
f 80/124/41 78/125/41 87/126/41 90/127/41
f 28/128/42 30/129/42 15/80/42 13/79/42
f 32/130/43 34/131/43 19/76/43 17/75/43
f 36/132/44 25/133/44 24/69/44 21/73/44
f 78/134/45 76/135/45 84/136/45 87/137/45
f 30/138/46 32/130/46 17/75/46 15/105/46
f 34/139/47 36/140/47 21/102/47 19/101/47
f 25/133/48 28/141/48 13/70/48 24/69/48
f 85/142/49 82/143/49 77/144/49 79/145/49
f 120/146/50 116/147/50 118/148/50
f 121/149/51 122/150/51 118/151/51 116/152/51
f 123/153/52 122/154/52 117/155/52 119/156/52
f 121/157/53 123/158/53 119/159/53 115/160/53
f 90/161/54 87/162/54 86/163/54 89/164/54
f 87/137/55 84/136/55 83/165/55 86/166/55
f 88/167/56 82/143/56 83/165/56 89/168/56
f 76/169/57 80/124/57 90/127/57 84/170/57
f 123/153/58 121/171/58 116/172/58 120/173/58
f 122/154/59 123/153/59 120/173/59 118/174/59
f 122/175/60 121/157/60 115/160/60 117/176/60
f 84/170/61 90/127/61 89/177/61 83/178/61
f 79/179/62 81/122/62 77/123/62
f 85/117/63 88/116/63 89/164/63 86/163/63
f 82/143/64 85/142/64 86/166/64 83/165/64
f 128/180/65 126/181/65 133/182/65 135/183/65
f 124/184/66 128/185/66 135/186/66 130/187/66
f 138/188/67 140/189/67 143/190/67 144/191/67
f 140/192/68 136/193/68 142/194/68 143/195/68
f 138/188/69 144/191/69 142/196/69 136/197/69
f 144/191/70 143/190/70 141/198/70 139/199/70
f 137/200/71 141/201/71 143/195/71 142/194/71
f 142/196/72 144/191/72 139/199/72 137/202/72
f 141/198/73 137/202/73 139/199/73
f 155/203/74 157/204/74 159/205/74
f 156/206/75 158/207/75 159/208/75 157/209/75
f 158/210/76 154/211/76 155/212/76 159/213/76
f 154/214/77 156/215/77 157/204/77 155/203/77
f 26/2/78 27/1/78 28/141/78 25/133/78
f 27/18/79 29/17/79 30/129/79 28/128/79
f 29/8/80 31/7/80 32/130/80 30/138/80
f 31/7/81 33/21/81 34/131/81 32/130/81
f 33/24/82 35/23/82 36/140/82 34/139/82
f 35/5/83 26/2/83 25/133/83 36/132/83
f 146/216/84 148/217/84 150/218/84
f 153/219/85 152/220/85 150/221/85 148/222/85
f 152/223/86 151/224/86 146/225/86 150/226/86
f 151/224/87 153/227/87 148/228/87 146/225/87
f 147/229/88 149/230/88 152/220/88 153/219/88
f 149/231/89 145/232/89 151/233/89 152/234/89
f 145/232/90 147/235/90 153/236/90 151/233/90
f 14/82/91 16/81/91 5/237/91 3/238/91
f 16/106/92 18/78/92 7/239/92 5/240/92
f 18/78/93 20/77/93 9/241/93 7/239/93
f 20/104/94 22/103/94 11/242/94 9/243/94
f 22/74/95 23/72/95 1/244/95 11/245/95
f 23/72/96 14/71/96 3/246/96 1/244/96
f 96/247/97 92/248/97 97/249/97 101/250/97
f 92/66/98 94/68/98 99/251/98 97/252/98
f 94/68/99 96/67/99 101/253/99 99/251/99
f 99/251/100 101/253/100 102/254/100 100/255/100
f 101/250/101 97/249/101 98/256/101 102/257/101
f 97/252/102 99/251/102 100/255/102 98/258/102
f 98/258/103 100/255/103 93/259/103 91/260/103
f 100/261/104 102/262/104 95/263/104 93/264/104
f 102/262/105 98/265/105 91/266/105 95/263/105
f 74/267/106 72/268/106 67/269/106 69/270/106
f 71/271/107 74/272/107 69/273/107 65/274/107
f 67/275/108 65/276/108 69/277/108
f 72/268/109 71/278/109 65/279/109 67/269/109
f 71/280/110 72/281/110 73/282/110 70/283/110
f 72/268/111 74/267/111 75/284/111 73/285/111
f 74/272/112 71/271/112 70/286/112 75/287/112
f 68/288/113 66/289/113 73/285/113 75/284/113
f 66/289/114 64/290/114 70/291/114 73/285/114
f 64/292/115 68/293/115 75/287/115 70/286/115
f 126/294/116 124/295/116 130/296/116 133/297/116
f 129/298/117 127/299/117 125/300/117
f 135/301/118 133/297/118 132/302/118 134/303/118
f 133/182/119 130/304/119 131/305/119 132/306/119
f 130/187/120 135/186/120 134/307/120 131/308/120
f 125/300/121 127/299/121 132/302/121 131/309/121
f 127/310/122 129/311/122 134/312/122 132/306/122
f 129/313/123 125/314/123 131/308/123 134/307/123
f 46/315/124 48/316/124 41/317/124 39/318/124
f 48/319/125 43/27/125 37/30/125 41/320/125
f 42/321/126 38/322/126 40/323/126
f 42/324/127 40/325/127 45/326/127 47/327/127
f 40/328/128 38/329/128 44/330/128 45/331/128
f 38/329/129 42/332/129 47/333/129 44/330/129
f 45/326/130 47/327/130 48/316/130 46/315/130
f 47/334/131 44/335/131 43/27/131 48/319/131
f 44/335/132 45/336/132 46/28/132 43/27/132
